<?xml version="1.0" encoding="utf-8"?>
<!-- Generator: Adobe Illustrator 19.2.1, SVG Export Plug-In . SVG Version: 6.00 Build 0)  -->
<svg version="1.1" id="Réteg_1" xmlns="http://www.w3.org/2000/svg" xmlns:xlink="http://www.w3.org/1999/xlink" x="0px" y="0px"
	 viewBox="0 0 100 100" style="enable-background:new 0 0 100 100;" xml:space="preserve">
<style type="text/css">
	.st0{fill:none;stroke:#000000;stroke-width:5;stroke-miterlimit:10;}
</style>
<path class="st0" d="M50,12"/>
<path class="st0" d="M50,31"/>
<path class="st0" d="M50,31c5.2,0,18.9-4.3,18.9-9.5S55.2,12,50,12V0"/>
<path class="st0" d="M50,31c5.2,0,18.9,4.3,18.9,9.5S55.2,50,50,50"/>
<path class="st0" d="M50,31"/>
<path class="st0" d="M50,50"/>
<path class="st0" d="M50,50c5.2,0,18.9,4.3,18.9,9.5S55.2,69,50,69"/>
<path class="st0" d="M50,50"/>
<path class="st0" d="M50,69"/>
<path class="st0" d="M50,69"/>
<path class="st0" d="M50,88"/>
<path class="st0" d="M50,88"/>
<path class="st0" d="M50,69c5.2,0,18.9,4.3,18.9,9.5S55.2,88,50,88v12"/>
</svg>
