<?xml version="1.0" encoding="utf-8"?>
<!-- Generator: Adobe Illustrator 19.2.1, SVG Export Plug-In . SVG Version: 6.00 Build 0)  -->
<svg version="1.1" id="Réteg_1" xmlns="http://www.w3.org/2000/svg" xmlns:xlink="http://www.w3.org/1999/xlink" x="0px" y="0px"
	 viewBox="0 0 100 100" style="enable-background:new 0 0 100 100;" xml:space="preserve">
<style type="text/css">
	.st0{stroke:#000000;stroke-width:5;stroke-miterlimit:10;}
</style>
<path d="M66.5,37.6c0,9.8-8.8,16.4-8.8,24.2H53c0-4.9,2.3-9,4.6-13c2.1-3.7,4.2-7.3,4.2-11.2c0-7.3-5.9-11.1-11.8-11.1
	c-5.8,0-11.8,3.8-11.8,11.1c0,3.9,2,7.5,4.2,11.2c2.3,4,4.6,8.1,4.6,13h-4.7c0-7.7-8.8-14.4-8.8-24.2c0-10.2,8.2-15.9,16.5-15.9
	C58.2,21.7,66.5,27.4,66.5,37.6z M57.1,65.3c0,0.6-0.5,1.2-1.2,1.2H44.1c-0.6,0-1.2-0.5-1.2-1.2c0-0.6,0.5-1.2,1.2-1.2h11.8
	C56.5,64.1,57.1,64.7,57.1,65.3z M57.1,70c0,0.6-0.5,1.2-1.2,1.2H44.1c-0.6,0-1.2-0.5-1.2-1.2c0-0.6,0.5-1.2,1.2-1.2h11.8
	C56.5,68.8,57.1,69.4,57.1,70z M53.1,77.5c-0.4,0.5-1.1,0.8-1.8,0.8h-2.6c-0.7,0-1.3-0.3-1.8-0.8l-3.4-3.9h12.9
	C56.5,73.5,53.1,77.5,53.1,77.5z"/>
<line class="st0" x1="0" y1="50" x2="27.5" y2="50"/>
<line class="st0" x1="72.5" y1="50" x2="100" y2="50"/>
</svg>
