<?xml version="1.0" encoding="utf-8"?>
<!-- Generator: Adobe Illustrator 22.1.0, SVG Export Plug-In . SVG Version: 6.00 Build 0)  -->
<svg version="1.1" id="Réteg_1" xmlns="http://www.w3.org/2000/svg" xmlns:xlink="http://www.w3.org/1999/xlink" x="0px" y="0px"
	 viewBox="0 0 150 50" style="enable-background:new 0 0 150 50;" xml:space="preserve">
<style type="text/css">
	.st0{fill:#FFFFFF;}
</style>
<path class="st0" d="M0,0v50h150V0H0z M48.9,22.7l-8.7,8.5c-0.4,0.4-0.5,0.9-0.5,1.4l2.1,12c0.2,1.4-0.3,2.7-1.4,3.5
	c-0.6,0.5-1.4,0.7-2.1,0.7c-0.6,0-1.1-0.1-1.7-0.4l-10.8-5.7c-0.5-0.2-1-0.2-1.5,0l-10.8,5.7c-1.2,0.6-2.7,0.5-3.8-0.3
	c-1.1-0.8-1.7-2.1-1.4-3.5l2.1-12c0.1-0.5-0.1-1-0.5-1.4l-8.7-8.5c-1-1-1.3-2.4-0.9-3.7c0.4-1.3,1.5-2.2,2.9-2.4l12.1-1.8
	c0.5-0.1,1-0.4,1.2-0.9l5.4-11c0.6-1.2,1.8-2,3.2-2c1.4,0,2.6,0.8,3.2,2l5.4,11c0.2,0.5,0.7,0.8,1.2,0.9l12.1,1.8
	c1.4,0.2,2.5,1.1,2.9,2.4C50.2,20.4,49.8,21.8,48.9,22.7z M98.9,22.7l-8.7,8.5c-0.4,0.4-0.5,0.9-0.5,1.4l2.1,12
	c0.2,1.4-0.3,2.7-1.4,3.5c-0.6,0.5-1.4,0.7-2.1,0.7c-0.6,0-1.1-0.1-1.7-0.4l-10.8-5.7c-0.5-0.2-1-0.2-1.5,0l-10.8,5.7
	c-1.2,0.6-2.7,0.5-3.8-0.3c-1.1-0.8-1.7-2.1-1.4-3.5l2.1-12c0.1-0.5-0.1-1-0.5-1.4l-8.7-8.5c-1-1-1.3-2.4-0.9-3.7
	c0.4-1.3,1.5-2.2,2.9-2.4l12.1-1.8c0.5-0.1,1-0.4,1.2-0.9l5.4-11c0.6-1.2,1.8-2,3.2-2c1.4,0,2.6,0.8,3.2,2l5.4,11
	c0.2,0.5,0.7,0.8,1.2,0.9l12.1,1.8c1.4,0.2,2.5,1.1,2.9,2.4C100.2,20.4,99.8,21.8,98.9,22.7z M148.8,22.7l-8.7,8.5
	c-0.4,0.4-0.5,0.9-0.5,1.4l2.1,12c0.2,1.4-0.3,2.7-1.4,3.5c-0.6,0.5-1.4,0.7-2.1,0.7c-0.6,0-1.1-0.1-1.7-0.4l-10.8-5.7
	c-0.5-0.2-1-0.2-1.5,0l-10.8,5.7c-1.2,0.6-2.7,0.5-3.8-0.3c-1.1-0.8-1.7-2.1-1.4-3.5l2.1-12c0.1-0.5-0.1-1-0.5-1.4l-8.7-8.5
	c-1-1-1.3-2.4-0.9-3.7c0.4-1.3,1.5-2.2,2.9-2.4l12.1-1.8c0.5-0.1,1-0.4,1.2-0.9l5.4-11c0.6-1.2,1.8-2,3.2-2c1.4,0,2.6,0.8,3.2,2
	l5.4,11c0.2,0.5,0.7,0.8,1.2,0.9l12.1,1.8c1.4,0.2,2.5,1.1,2.9,2.4C150.1,20.4,149.8,21.8,148.8,22.7z"/>
<path d="M98.9,22.8c1-1,1.3-2.4,0.9-3.7c-0.4-1.3-1.5-2.2-2.9-2.4l-12.1-1.8c-0.5-0.1-1-0.4-1.2-0.9l-5.4-11c-0.6-1.2-1.8-2-3.2-2
	c-1.4,0-2.6,0.8-3.2,2l-5.4,11c-0.2,0.5-0.7,0.8-1.2,0.9l-12.1,1.8c-1.4,0.2-2.5,1.1-2.9,2.4c-0.4,1.3-0.1,2.7,0.9,3.7l8.7,8.5
	c0.4,0.4,0.5,0.9,0.5,1.4l-2.1,12c-0.2,1.4,0.3,2.7,1.4,3.5c1.1,0.8,2.6,0.9,3.8,0.3l10.8-5.7c0.5-0.2,1-0.2,1.5,0l10.8,5.7
	c0.5,0.3,1.1,0.4,1.7,0.4c0.7,0,1.5-0.2,2.1-0.7c1.1-0.8,1.7-2.1,1.4-3.5l-2.1-12c-0.1-0.5,0.1-1,0.5-1.4L98.9,22.8z M87.7,33
	l2.1,12c0.1,0.6-0.1,1.2-0.6,1.5C88.6,47,88,47,87.5,46.7l-10.8-5.7c-0.5-0.3-1.1-0.4-1.7-0.4c-0.6,0-1.1,0.1-1.7,0.4l-10.8,5.7
	C62,47,61.4,47,60.9,46.6c-0.5-0.4-0.7-0.9-0.6-1.5l2.1-12c0.2-1.2-0.2-2.3-1-3.2l-8.7-8.5c-0.4-0.4-0.6-1-0.4-1.6
	c0.2-0.6,0.7-1,1.3-1.1l12.1-1.8c1.2-0.2,2.2-0.9,2.7-2l5.4-11c0.3-0.6,0.8-0.9,1.4-0.9c0.6,0,1.1,0.3,1.4,0.9l5.4,11
	c0.5,1.1,1.5,1.8,2.7,2l12.1,1.8c0.6,0.1,1.1,0.5,1.3,1.1c0.2,0.6,0,1.2-0.4,1.6l-8.7,8.5C87.9,30.7,87.5,31.9,87.7,33z"/>
<path d="M148.8,22.8c1-1,1.3-2.4,0.9-3.7c-0.4-1.3-1.5-2.2-2.9-2.4l-12.1-1.8c-0.5-0.1-1-0.4-1.2-0.9l-5.4-11c-0.6-1.2-1.8-2-3.2-2
	c-1.4,0-2.6,0.8-3.2,2l-5.4,11c-0.2,0.5-0.7,0.8-1.2,0.9L103,16.7c-1.4,0.2-2.5,1.1-2.9,2.4c-0.4,1.3-0.1,2.7,0.9,3.7l8.7,8.5
	c0.4,0.4,0.5,0.9,0.5,1.4l-2.1,12c-0.2,1.4,0.3,2.7,1.4,3.5c1.1,0.8,2.6,0.9,3.8,0.3l10.8-5.7c0.5-0.2,1-0.2,1.5,0l10.8,5.7
	c0.5,0.3,1.1,0.4,1.7,0.4c0.7,0,1.5-0.2,2.1-0.7c1.1-0.8,1.7-2.1,1.4-3.5l-2.1-12c-0.1-0.5,0.1-1,0.5-1.4L148.8,22.8z M137.7,33
	l2.1,12c0.1,0.6-0.1,1.2-0.6,1.5c-0.5,0.4-1.1,0.4-1.7,0.1l-10.8-5.7c-0.5-0.3-1.1-0.4-1.7-0.4s-1.1,0.1-1.7,0.4l-10.8,5.7
	c-0.5,0.3-1.2,0.2-1.7-0.1c-0.5-0.4-0.7-0.9-0.6-1.5l2.1-12c0.2-1.2-0.2-2.3-1-3.2l-8.8-8.5c-0.4-0.4-0.6-1-0.4-1.6
	c0.2-0.6,0.7-1,1.3-1.1l12.1-1.8c1.2-0.2,2.2-0.9,2.7-2l5.4-11c0.3-0.6,0.8-0.9,1.4-0.9c0.6,0,1.1,0.3,1.4,0.9l5.4,11
	c0.5,1.1,1.5,1.8,2.7,2l12.1,1.8c0.6,0.1,1.1,0.5,1.3,1.1c0.2,0.6,0,1.2-0.4,1.6l-8.7,8.5C137.8,30.7,137.5,31.9,137.7,33z"/>
<path d="M48.9,22.8c1-1,1.3-2.4,0.9-3.7c-0.4-1.3-1.5-2.2-2.9-2.4l-12.1-1.8c-0.5-0.1-1-0.4-1.2-0.9l-5.4-11c-0.6-1.2-1.8-2-3.2-2
	c-1.4,0-2.6,0.8-3.2,2l-5.4,11c-0.2,0.5-0.7,0.8-1.2,0.9L3.1,16.7c-1.4,0.2-2.5,1.1-2.9,2.4c-0.4,1.3-0.1,2.7,0.9,3.7l8.7,8.5
	c0.4,0.4,0.5,0.9,0.5,1.4l-2.1,12c-0.2,1.4,0.3,2.7,1.4,3.5c1.1,0.8,2.6,0.9,3.8,0.3l10.8-5.7c0.5-0.2,1-0.2,1.5,0l10.8,5.7
	c0.5,0.3,1.1,0.4,1.7,0.4c0.7,0,1.5-0.2,2.1-0.7c1.1-0.8,1.7-2.1,1.4-3.5l-2.1-12c-0.1-0.5,0.1-1,0.5-1.4L48.9,22.8z M37.7,33
	l2.1,12c0.1,0.6-0.1,1.2-0.6,1.5C38.6,47,38,47,37.5,46.7l-10.8-5.7c-0.5-0.3-1.1-0.4-1.7-0.4s-1.1,0.1-1.7,0.4l-10.8,5.7
	C12,47,11.4,47,10.9,46.6c-0.5-0.4-0.7-0.9-0.6-1.5l2.1-12c0.2-1.2-0.2-2.3-1-3.2l-8.7-8.5c-0.4-0.4-0.6-1-0.4-1.6
	c0.2-0.6,0.7-1,1.3-1.1l12.1-1.8c1.2-0.2,2.2-0.9,2.7-2l5.4-11c0.3-0.6,0.8-0.9,1.4-0.9c0.6,0,1.1,0.3,1.4,0.9l5.4,11
	c0.5,1.1,1.5,1.8,2.7,2l12.1,1.8c0.6,0.1,1.1,0.5,1.3,1.1c0.2,0.6,0,1.2-0.4,1.6l-8.7,8.5C37.9,30.7,37.5,31.9,37.7,33z"/>
</svg>
